<svg width="22" height="20" viewBox="0 0 22 20" fill="none" xmlns="http://www.w3.org/2000/svg">
<path d="M15.7439 3.29891C15.3567 3.15177 14.9235 3.34638 14.7764 3.73358C14.6292 4.12077 14.8239 4.55394 15.2111 4.70108C15.5718 4.83815 15.9483 5.07039 16.3266 5.44544C16.8083 5.92307 17.1132 6.44657 17.2832 6.99773C17.4052 7.39355 17.8251 7.61548 18.2209 7.49342C18.6167 7.37136 18.8386 6.95154 18.7166 6.55572C18.4729 5.76567 18.037 5.02899 17.3827 4.38024C16.8664 3.86843 16.3146 3.5158 15.7439 3.29891Z" fill="#2D264B"/>
<path fill-rule="evenodd" clip-rule="evenodd" d="M9.80094 1.5126C8.91273 0.949169 7.69663 0.363399 6.34626 0.264543C4.95836 0.162939 3.48046 0.581763 2.1529 1.9356C0.585622 3.53389 0.0939045 5.50691 0.291356 7.50268C0.486531 9.47544 1.35186 11.4809 2.50596 13.2579C3.66315 15.0396 5.14134 16.6393 6.6243 17.8008C8.07465 18.9368 9.65268 19.75 10.9999 19.75C12.347 19.75 13.9251 18.9368 15.3754 17.8008C16.8584 16.6393 18.3366 15.0396 19.4938 13.2579C20.6479 11.4809 21.5132 9.47545 21.7084 7.50268C21.9058 5.50692 21.4141 3.53389 19.8468 1.9356C18.5193 0.581778 17.0414 0.162957 15.6535 0.264558C14.3031 0.363413 13.087 0.949176 12.1988 1.5126C11.4984 1.95692 10.5014 1.95692 9.80094 1.5126ZM3.2239 2.98582C4.23053 1.95926 5.27121 1.68986 6.23674 1.76054C7.23981 1.83397 8.212 2.281 8.99745 2.77925C10.1884 3.5347 11.8114 3.5347 13.0023 2.77925C13.7878 2.28101 14.76 1.83398 15.763 1.76056C16.7286 1.68987 17.7692 1.95928 18.7758 2.98582C19.9791 4.21286 20.3774 5.7199 20.2157 7.355C20.0516 9.0131 19.3084 10.7893 18.2358 12.4408C17.1663 14.0876 15.7995 15.5633 14.4505 16.6199C13.0688 17.7021 11.8277 18.25 10.9999 18.25C10.172 18.25 8.9309 17.7021 7.54924 16.6199C6.20019 15.5633 4.83346 14.0876 3.76393 12.4408C2.69131 10.7893 1.94811 9.0131 1.78407 7.355C1.6223 5.7199 2.02067 4.21285 3.2239 2.98582Z" fill="#2D264B"/>
</svg>
