<svg width="30" height="30" viewBox="0 0 30 30" fill="none" xmlns="http://www.w3.org/2000/svg">
<g filter="url(#filter0_d_2_3375)">
<path d="M19.7439 5.29891C19.3567 5.15177 18.9235 5.34638 18.7764 5.73358C18.6292 6.12077 18.8239 6.55394 19.2111 6.70108C19.5718 6.83815 19.9483 7.07039 20.3266 7.44544C20.8083 7.92307 21.1132 8.44657 21.2832 8.99773C21.4052 9.39355 21.8251 9.61548 22.2209 9.49342C22.6167 9.37136 22.8386 8.95154 22.7166 8.55572C22.4729 7.76567 22.037 7.02899 21.3827 6.38024C20.8664 5.86843 20.3146 5.5158 19.7439 5.29891Z" fill="#2D264B"/>
<path fill-rule="evenodd" clip-rule="evenodd" d="M13.8009 3.5126C12.9127 2.94917 11.6966 2.3634 10.3463 2.26454C8.95836 2.16294 7.48046 2.58176 6.1529 3.9356C4.58562 5.53389 4.0939 7.50691 4.29136 9.50268C4.48653 11.4754 5.35186 13.4809 6.50596 15.2579C7.66315 17.0396 9.14134 18.6393 10.6243 19.8008C12.0746 20.9368 13.6527 21.75 14.9999 21.75C16.347 21.75 17.9251 20.9368 19.3754 19.8008C20.8584 18.6393 22.3366 17.0396 23.4938 15.2579C24.6479 13.4809 25.5132 11.4754 25.7084 9.50268C25.9058 7.50692 25.4141 5.53389 23.8468 3.9356C22.5193 2.58178 21.0414 2.16296 19.6535 2.26456C18.3031 2.36341 17.087 2.94918 16.1988 3.5126C15.4984 3.95692 14.5014 3.95692 13.8009 3.5126ZM7.2239 4.98582C8.23053 3.95926 9.27121 3.68986 10.2367 3.76054C11.2398 3.83397 12.212 4.281 12.9975 4.77925C14.1884 5.5347 15.8114 5.5347 17.0023 4.77925C17.7878 4.28101 18.76 3.83398 19.763 3.76056C20.7286 3.68987 21.7692 3.95928 22.7758 4.98582C23.9791 6.21286 24.3774 7.7199 24.2157 9.355C24.0516 11.0131 23.3084 12.7893 22.2358 14.4408C21.1663 16.0876 19.7995 17.5633 18.4505 18.6199C17.0688 19.7021 15.8277 20.25 14.9999 20.25C14.172 20.25 12.9309 19.7021 11.5492 18.6199C10.2002 17.5633 8.83346 16.0876 7.76393 14.4408C6.69131 12.7893 5.94811 11.0131 5.78407 9.355C5.6223 7.7199 6.02067 6.21285 7.2239 4.98582Z" fill="#2D264B"/>
</g>
<defs>
<filter id="filter0_d_2_3375" x="-1" y="0" width="32" height="32" filterUnits="userSpaceOnUse" color-interpolation-filters="sRGB">
<feFlood flood-opacity="0" result="BackgroundImageFix"/>
<feColorMatrix in="SourceAlpha" type="matrix" values="0 0 0 0 0 0 0 0 0 0 0 0 0 0 0 0 0 0 127 0" result="hardAlpha"/>
<feOffset dy="4"/>
<feGaussianBlur stdDeviation="2"/>
<feComposite in2="hardAlpha" operator="out"/>
<feColorMatrix type="matrix" values="0 0 0 0 0 0 0 0 0 0 0 0 0 0 0 0 0 0 0.25 0"/>
<feBlend mode="normal" in2="BackgroundImageFix" result="effect1_dropShadow_2_3375"/>
<feBlend mode="normal" in="SourceGraphic" in2="effect1_dropShadow_2_3375" result="shape"/>
</filter>
</defs>
</svg>
